<?xml version="1.0" encoding="UTF-8" standalone="no"?>
<!DOCTYPE svg PUBLIC "-//W3C//DTD SVG 1.1//EN" "http://www.w3.org/Graphics/SVG/1.1/DTD/svg11.dtd">
<svg width="100%" height="100%" viewBox="0 0 32 32" version="1.1" xmlns="http://www.w3.org/2000/svg" xmlns:xlink="http://www.w3.org/1999/xlink" xml:space="preserve" xmlns:serif="http://www.serif.com/" style="fill-rule:evenodd;clip-rule:evenodd;stroke-linejoin:round;stroke-miterlimit:2;">
    <g transform="matrix(1,0,0,1,2.442031,-2.498954)">
        <g transform="matrix(0.80154,0,0,0.80154,0,6.350714)">
            <path d="M4,5C4,5 4,4 5,4L11,4C11,4 12,4 12,5L12,7L4,7L4,5Z" style="fill:rgb(102,117,127);fill-rule:nonzero;"/>
        </g>
        <g transform="matrix(0.80154,0,0,0.80154,0,6.350714)">
            <path d="M0,10C0,10 0,6 4,6L32,6C32,6 36,6 36,10L36,28C36,28 36,32 32,32L4,32C4,32 0,32 0,28L0,10Z" style="fill:rgb(49,55,61);fill-rule:nonzero;"/>
        </g>
        <g transform="matrix(0.80154,0,0,0.80154,0,6.350714)">
            <circle cx="21" cy="19" r="10" style="fill:rgb(204,214,221);"/>
        </g>
        <g transform="matrix(0.80154,0,0,0.80154,0,6.350714)">
            <circle cx="21" cy="19" r="8" style="fill:rgb(49,55,61);"/>
        </g>
        <g transform="matrix(0.80154,0,0,0.80154,0,6.350714)">
            <circle cx="21" cy="19" r="5" style="fill:rgb(59,136,195);"/>
        </g>
        <g transform="matrix(0.80154,0,0,0.80154,0,6.350714)">
            <circle cx="32.5" cy="9.5" r="1.5" style="fill:white;"/>
        </g>
        <g transform="matrix(0.80154,0,0,0.80154,0,6.350714)">
            <path d="M12,9.5C12,10.323 11.323,11 10.5,11L5.5,11C4.677,11 4,10.323 4,9.5C4,8.677 4.677,8 5.5,8L10.5,8C11.323,8 12,8.677 12,9.5Z" style="fill:rgb(245,248,250);fill-rule:nonzero;"/>
        </g>
        <g transform="matrix(1,0,0,1,-3.764943,-2.158421)">
            <g transform="matrix(0.776365,0,0,0.776365,2.025435,7.156329)">
                <path d="M16,9L19,3L13,5L9,0L7,5L1,4L5,10L0,14L6,14L4,20L10,17L16,22L15,14L21,13L16,9Z" style="fill:rgb(255,172,51);fill-rule:nonzero;"/>
            </g>
            <g transform="matrix(0.776365,0,0,0.776365,2.025435,7.156329)">
                <path d="M10,14L7,16L8,13L5,12L8,10L5,7L9,7L10,4L12,7L15,6L13,9L16,12L13,13L14,17L10,14Z" style="fill:white;fill-rule:nonzero;"/>
            </g>
        </g>
    </g>
</svg>
