<?xml version="1.0" encoding="UTF-8" standalone="no"?><!DOCTYPE svg PUBLIC "-//W3C//DTD SVG 1.1//EN" "http://www.w3.org/Graphics/SVG/1.1/DTD/svg11.dtd"><svg width="100%" height="100%" viewBox="0 0 800 800" version="1.1" xmlns="http://www.w3.org/2000/svg" xmlns:xlink="http://www.w3.org/1999/xlink" xml:space="preserve" xmlns:serif="http://www.serif.com/" style="fill-rule:evenodd;clip-rule:evenodd;stroke-linejoin:round;stroke-miterlimit:2;"><g id="Layer_2"><g id="Icons"><g><rect x="0" y="0" width="800" height="800" style="fill:none;"/><g><path d="M233.333,400c0,91.431 75.236,166.667 166.667,166.667l0,-333.333c-91.431,0 -166.667,75.236 -166.667,166.667Z" style="fill:#fff;fill-rule:nonzero;"/><path d="M400,33.333c-201.147,0 -366.667,165.519 -366.667,366.667c0,201.147 165.519,366.667 366.667,366.667c201.147,0 366.667,-165.519 366.667,-366.667c0.003,-0.557 0.004,-1.114 0.004,-1.67c0,-200.233 -164.767,-365 -365,-365c-0.557,-0 -1.114,0.001 -1.67,0.004Zm-300,366.667c0.905,-164.231 135.769,-299.095 300,-300l0,133.333c91.431,-0 166.667,75.236 166.667,166.667c0,91.431 -75.236,166.667 -166.667,166.667l-0,133.333c-164.231,-0.905 -299.095,-135.769 -300,-300Z" style="fill:#fff;fill-rule:nonzero;"/></g></g></g></g></svg>