<?xml version="1.0" encoding="UTF-8" standalone="no"?>
<!DOCTYPE svg PUBLIC "-//W3C//DTD SVG 1.1//EN" "http://www.w3.org/Graphics/SVG/1.1/DTD/svg11.dtd">
<svg width="100%" height="100%" viewBox="0 0 800 800" version="1.1" xmlns="http://www.w3.org/2000/svg" xmlns:xlink="http://www.w3.org/1999/xlink" xml:space="preserve" xmlns:serif="http://www.serif.com/" style="fill-rule:evenodd;clip-rule:evenodd;stroke-linejoin:round;stroke-miterlimit:2;">
    <g id="Layer_2" transform="matrix(16.666667,0,0,16.666667,0,0)">
        <g id="Icons">
            <g>
                <rect x="0" y="0" width="48" height="48" style="fill:none;"/>
                <g>
                    <path d="M14,24C14,29.486 18.514,34 24,34L24,14C18.514,14 14,18.514 14,24Z" style="fill:rgb(51,51,51);fill-rule:nonzero;"/>
                    <path d="M24,2C11.931,2 2,11.931 2,24C2,36.069 11.931,46 24,46C36.069,46 46,36.069 46,24C46,23.967 46,23.933 46,23.9C46,11.886 36.114,2 24.1,2C24.067,2 24.033,2 24,2ZM6,24C6.054,14.146 14.146,6.054 24,6L24,14C29.486,14 34,18.514 34,24C34,29.486 29.486,34 24,34L24,42C14.146,41.946 6.054,33.854 6,24Z" style="fill:rgb(51,51,51);fill-rule:nonzero;"/>
                </g>
            </g>
        </g>
    </g>
</svg>
